<svg width="300" height="50" viewBox="0 0 300 50" fill="none" xmlns="http://www.w3.org/2000/svg">
<path d="M82.0417 34.6227L88.676 18.7677H93.8935L100.528 34.6227H94.8156L93.9835 32.5087H88.4736L87.664 34.6227H82.0417ZM89.8005 28.7755H92.6791L91.2398 24.9523L89.8005 28.7755Z" fill="white" fill-opacity="0.7"/>
<path d="M101.176 34.6227V18.8802H107.203C113.455 18.8802 116.581 21.9612 116.581 26.6165V26.6615C116.581 31.3167 113.387 34.6227 107.023 34.6227H101.176ZM106.438 30.0349H107.315C109.722 30.0349 111.273 29.0453 111.273 26.7739V26.7289C111.273 24.4575 109.722 23.468 107.315 23.468H106.438V30.0349Z" fill="white" fill-opacity="0.7"/>
<path d="M118.021 34.6227V18.8802H123.508L126.881 24.4125L130.255 18.8802H135.742V34.6227H130.502V26.8189L126.881 32.4187H126.791L123.171 26.8189V34.6227H118.021Z" fill="white" fill-opacity="0.7"/>
<path d="M137.59 34.6227V18.8802H142.853V34.6227H137.59Z" fill="white" fill-opacity="0.7"/>
<path d="M144.705 34.6227V18.8802H149.63L155.23 25.8294V18.8802H160.447V34.6227H155.769L149.922 27.3586V34.6227H144.705Z" fill="white" fill-opacity="0.7"/>
<path d="M162.297 34.6227V18.8802H167.56V34.6227H162.297Z" fill="white" fill-opacity="0.7"/>
<path d="M176.181 34.915C172.988 34.915 170.109 34.0155 168.108 32.2613L170.919 28.9104C172.628 30.2148 174.585 30.7545 176.429 30.7545C177.373 30.7545 177.778 30.5071 177.778 30.0798V30.0349C177.778 29.5851 177.283 29.3377 175.597 29.0003C172.066 28.2807 168.962 27.2687 168.962 23.9403V23.8953C168.962 20.9042 171.301 18.5878 175.642 18.5878C178.678 18.5878 180.927 19.3075 182.748 20.7468L180.185 24.3001C178.7 23.2206 176.924 22.7483 175.462 22.7483C174.675 22.7483 174.315 23.0182 174.315 23.4005V23.4455C174.315 23.8728 174.742 24.1427 176.406 24.4575C180.432 25.1997 183.131 26.3691 183.131 29.5401V29.5851C183.131 32.891 180.409 34.915 176.181 34.915Z" fill="white" fill-opacity="0.7"/>
<path d="M187.801 34.6227V23.333H183.168V18.8802H197.696V23.333H193.063V34.6227H187.801Z" fill="white" fill-opacity="0.7"/>
<path d="M198.885 34.6227V18.8802H206.577C209.365 18.8802 211.142 19.5773 212.244 20.6793C213.189 21.6239 213.683 22.7933 213.683 24.4125V24.4575C213.683 26.7514 212.491 28.3482 210.58 29.2702L214.246 34.6227H208.241L205.272 30.1248H204.148V34.6227H198.885ZM204.148 26.3691H206.419C207.679 26.3691 208.443 25.8069 208.443 24.8398V24.7949C208.443 23.7828 207.656 23.2881 206.442 23.2881H204.148V26.3691Z" fill="white" fill-opacity="0.7"/>
<path d="M213.244 34.6227L219.878 18.7677H225.096L231.73 34.6227H226.018L225.186 32.5087H219.676L218.866 34.6227H213.244ZM221.003 28.7755H223.881L222.442 24.9523L221.003 28.7755Z" fill="white" fill-opacity="0.7"/>
<path d="M239.171 34.96C234.808 34.96 231.008 31.6766 231.008 26.7964V26.7514C231.008 22.0512 234.673 18.5428 239.374 18.5428C242.837 18.5428 245.176 20.2295 246.503 22.6359L242.162 25.1772C241.578 24.0527 240.745 23.2656 239.306 23.2656C237.53 23.2656 236.36 24.8173 236.36 26.7064V26.7514C236.36 28.7979 237.574 30.2373 239.306 30.2373C240.79 30.2373 241.623 29.4276 242.275 28.2582L246.615 30.7095C245.288 33.0484 243.084 34.96 239.171 34.96Z" fill="white" fill-opacity="0.7"/>
<path d="M247.664 34.6227V18.8802H252.927V34.6227H247.664Z" fill="white" fill-opacity="0.7"/>
<path d="M262.988 34.96C258.13 34.96 254.419 31.3617 254.419 26.7964V26.7514C254.419 22.1861 258.175 18.5428 263.033 18.5428C267.89 18.5428 271.601 22.1411 271.601 26.7064V26.7514C271.601 31.3167 267.845 34.96 262.988 34.96ZM263.033 30.3047C265.034 30.3047 266.294 28.6405 266.294 26.7964V26.7514C266.294 24.8848 265.012 23.1981 262.988 23.1981C260.986 23.1981 259.727 24.8623 259.727 26.7064V26.7514C259.727 28.618 261.009 30.3047 263.033 30.3047ZM261.031 17.7557L263.19 14L268.385 15.1694L264.787 17.7557H261.031Z" fill="white" fill-opacity="0.7"/>
<path d="M273.03 34.6227V18.8802H277.955L283.555 25.8294V18.8802H288.772V34.6227H284.094L278.247 27.3586V34.6227H273.03Z" fill="white" fill-opacity="0.7"/>
<path d="M12.5058 31.2556L23.4134 13H29.854L20.5047 28.7802H24.4579L30.1946 19.1883H36.2608L28.1919 33.1122C26.5298 36 23.4134 36 22.0629 36H16.1417C11.9864 36 11.3631 33.2152 12.5058 31.2556Z" fill="white"/>
<path d="M38.0607 36H32.0356L42.9254 17.5381H39.1856L41.8004 13H59.0071L56.221 17.5381H49.0532L38.0607 36Z" fill="white"/>
<path d="M54.604 20.6322H49.8872L46.1885 26.8207H50.9055L54.604 20.6322Z" fill="white"/>
<path d="M58.2136 28.4708L59.1486 32.1839L70.3776 13H76.6875L63.2 36H54.3884L52.5001 28.4708H58.2136Z" fill="white"/>
</svg>
